<svg width="28" height="29" viewBox="0 0 28 29" fill="none" xmlns="http://www.w3.org/2000/svg">
<path d="M21.7547 7.62819C21.7429 7.74631 21.7359 7.88106 21.7328 8.02719L20.0554 8.82825C19.8205 8.78975 18.6554 8.85756 16.9177 8.00006C16.4771 7.78262 16.0466 7.66712 15.6332 7.66712C15.2591 7.66765 14.8904 7.75686 14.5574 7.92744C14.1186 7.8325 13.4864 7.58925 13.1167 7.59012C12.2802 7.5945 10.3784 8.27569 9.85162 8.33388C9.33625 8.39031 8.80556 8.53206 8.27138 8.75781C7.30056 8.47519 6.08344 8.01362 5.43156 7.75856L0.875 4.4375V15.1169L4.22363 16.7102C4.27219 16.6534 4.32775 16.5659 4.38812 16.4574L4.49181 16.5055C4.54256 16.6368 4.59856 16.7676 4.65981 16.8975C4.29231 17.5161 4.24856 18.2131 4.54212 18.819C4.79369 19.3374 5.26225 19.7014 5.78419 19.8034C5.81262 20.1263 5.92112 20.4386 6.104 20.7094C6.43213 21.1938 6.95362 21.4829 7.50006 21.4829C7.5495 21.4829 7.59894 21.4808 7.64794 21.4751C7.72581 21.6855 7.84 21.8815 7.98831 22.0512C8.31819 22.4306 8.78019 22.648 9.25531 22.648C9.29031 22.648 9.32444 22.6471 9.359 22.6445C9.41938 22.8738 9.52219 23.0907 9.66569 23.2841C9.996 23.7304 10.5057 23.9959 11.0298 23.9959C11.3553 23.9959 11.6664 23.8962 11.9407 23.7094C12.4709 24.0497 12.9321 24.2891 13.3411 24.4361C13.5463 24.5196 13.7598 24.5625 13.9777 24.5625C14.4931 24.5625 14.9931 24.3219 15.3501 23.901C15.4827 23.7444 15.5903 23.5694 15.6691 23.3821C15.8233 23.4288 15.9835 23.4527 16.1446 23.453C16.6924 23.453 17.2117 23.1848 17.5709 22.7158C17.7415 22.4935 17.8651 22.2388 17.934 21.9673C17.9716 21.9699 18.0088 21.9712 18.046 21.9712C18.6791 21.9712 19.285 21.5998 19.6258 21.0017C19.8045 20.6906 19.8993 20.3384 19.901 19.9797C20.5266 19.8865 21.0774 19.4416 21.3456 18.7928C21.6099 18.1536 21.5381 17.4483 21.1693 16.8603L22.8734 15.9C22.9171 16.0496 22.96 16.1874 23.0016 16.2994L27.125 14.1054V5.15588L21.7547 7.62819ZM21.7542 8.95687C21.7814 9.43025 21.8308 9.96531 21.8947 10.524C21.5447 9.936 21.1028 9.66781 20.5542 9.53437L21.7542 8.95687ZM19.467 19.3501C18.5272 19.0268 16.5712 16.7273 16.5712 16.7273H16.6097C16.8088 16.7133 17.2388 16.5037 17.7214 16.6039C16.9636 15.9529 16.1302 16.5037 15.5627 16.1664C15.6944 16.5886 16.3275 16.7216 16.4898 16.7269L18.3641 18.9065C19.2128 19.8931 18.6217 21.1137 17.7708 21.3079C17.1999 21.0301 15.5877 19.1126 15.5877 19.1126C15.6428 19.1025 15.9696 19.0001 16.3026 19.0439C15.5339 18.469 14.6624 18.9678 14.1453 18.6068C14.4384 19.3309 15.4039 19.1454 15.505 19.1279L16.5077 20.408C17.3101 21.4318 16.6797 22.6143 15.8274 22.7744C15.0719 22.5089 14.5814 21.5639 14.5814 21.5639C14.6576 21.5516 14.9122 21.4383 15.2744 21.4908C14.63 20.926 13.8797 21.4383 13.4286 21.1168C13.7073 21.724 14.4021 21.5858 14.441 21.5814C15.1357 22.6756 14.4152 23.8166 13.5542 23.8507H13.5533L13.5524 23.8511C13.0353 23.7614 12.4937 23.348 11.8821 22.9236C12.0921 22.6909 12.2776 22.2818 12.2776 22.2818C12.8918 21.1697 12.0947 20.1862 11.2717 20.2706C11.9394 20.4531 12.4399 21.3053 11.9188 22.2516L11.69 22.6366C11.4415 23.0894 11.0534 23.3629 10.7682 23.3292C10.3289 23.2758 9.70988 22.6344 9.97019 21.7297C10.0708 21.6378 11.0412 20.1534 11.0412 20.1534C11.7084 19.0789 10.9594 18.0503 10.1342 18.0853C10.7914 18.3071 11.2521 19.1882 10.6855 20.1026L9.89669 21.3324C9.62763 21.7673 9.27938 22.0136 8.94731 21.9681C8.43194 21.8981 8.07056 21.2694 8.15325 20.6206C8.14887 20.6246 8.72113 19.9845 8.72113 19.9845C9.4815 18.9909 8.8305 17.8814 8.00669 17.8232C8.63975 18.1181 9.01687 19.0474 8.37069 19.8931L8.09156 20.2352C7.78531 20.6368 7.4165 20.8411 7.09363 20.7606C6.53013 20.6193 6.237 19.5649 6.50344 19.2775C6.713 19.0513 7.30144 18.3351 7.30144 18.3351C8.06137 17.3411 7.41125 16.2321 6.58656 16.173C7.22006 16.4688 7.59719 17.398 6.951 18.2441L6.67188 18.5854C6.36387 18.9905 5.99375 19.1939 5.66869 19.1112C4.99144 18.9398 4.65325 17.8941 5.30119 17.0454C5.30119 17.0454 5.08113 16.3462 4.98181 16.0474L4.65544 15.8961C5.42062 14.1133 6.5765 10.1784 6.62988 8.87113C7.19338 9.07194 8.68087 9.49981 8.83881 9.50069L8.83794 9.50156C10.4392 8.99844 12.1174 9.054 12.8831 8.75825C13.1311 8.66375 13.6246 8.65763 14.1479 8.95687C13.8211 9.24344 13.5122 9.58469 13.1915 9.90275C12.425 10.6636 9.57512 11.8501 10.1246 13.0978C10.5989 14.1745 11.9346 15.2761 14.175 13.5467L15.435 13.3734L17.3946 14.3403L19.9058 16.9194C20.8014 17.8372 20.2943 19.0832 19.467 19.3501ZM20.097 16.5086C19.8091 15.9704 18.9118 15.088 18.0648 14.3666L18.0596 14.3613C18.4503 14.3771 18.8602 13.7479 19.39 13.6994C19.0199 13.4167 18.4065 13.7431 18.2153 13.7948C17.1614 14.0782 15.5234 12.7522 15.5234 12.7522L13.9563 12.9779C13.9563 12.9779 12.0925 15.2525 10.5223 13.3787C9.66963 12.3611 12.7597 11.0319 13.5209 10.2755C14.4961 9.30644 15.365 8.12081 16.9693 8.92844C18.3019 9.60044 18.8269 9.55888 20.6146 9.86994C21.1474 9.96312 21.5167 10.2073 21.9126 10.6837C22.099 12.2517 22.4004 13.9908 22.6896 15.2009C22.5404 15.3264 21.2616 16.1866 20.097 16.5086Z" fill="#40048F"/>
</svg>
