<svg width="28" height="29" viewBox="0 0 28 29" fill="none" xmlns="http://www.w3.org/2000/svg">
<path d="M23.3333 8.37492C25.1052 8.37492 26.5417 6.9385 26.5417 5.16659C26.5417 3.39467 25.1052 1.95825 23.3333 1.95825C21.5614 1.95825 20.125 3.39467 20.125 5.16659C20.125 6.9385 21.5614 8.37492 23.3333 8.37492Z" fill="#40048F"/>
<path d="M22.214 10.0083C20.3823 9.61159 18.889 8.11825 18.4923 6.28659C18.3407 5.57492 18.329 4.88659 18.4573 4.23325C18.609 3.50992 18.0723 2.83325 17.3257 2.83325H8.16732C4.94732 2.83325 2.33398 5.44659 2.33398 8.66659V16.7749C2.33398 19.9949 4.94732 22.6083 8.16732 22.6083H9.91732C10.244 22.6083 10.664 22.8183 10.8507 23.0749L12.6007 25.3966C13.3707 26.4233 14.6307 26.4233 15.4007 25.3966L17.1507 23.0749C17.3723 22.7833 17.7107 22.6083 18.084 22.6083H19.8457C23.0657 22.6083 25.6673 20.0066 25.6673 16.7866V11.1749C25.6673 10.4399 24.9907 9.90325 24.2673 10.0433C23.614 10.1599 22.9257 10.1599 22.214 10.0083ZM9.33398 14.4999C8.68065 14.4999 8.16732 13.9749 8.16732 13.3333C8.16732 12.6916 8.68065 12.1666 9.33398 12.1666C9.97565 12.1666 10.5007 12.6916 10.5007 13.3333C10.5007 13.9749 9.98732 14.4999 9.33398 14.4999ZM14.0007 14.4999C13.3473 14.4999 12.834 13.9749 12.834 13.3333C12.834 12.6916 13.3473 12.1666 14.0007 12.1666C14.6423 12.1666 15.1673 12.6916 15.1673 13.3333C15.1673 13.9749 14.654 14.4999 14.0007 14.4999ZM18.6673 14.4999C18.014 14.4999 17.5007 13.9749 17.5007 13.3333C17.5007 12.6916 18.014 12.1666 18.6673 12.1666C19.309 12.1666 19.834 12.6916 19.834 13.3333C19.834 13.9749 19.3207 14.4999 18.6673 14.4999Z" fill="#40048F"/>
</svg>
