<svg width="28" height="29" viewBox="0 0 28 29" fill="none" xmlns="http://www.w3.org/2000/svg">
<path fill-rule="evenodd" clip-rule="evenodd" d="M2.33398 14.4999C2.33398 8.05642 7.55715 2.83325 14.0007 2.83325C20.4442 2.83325 25.6673 8.05642 25.6673 14.4999C25.6673 20.9434 20.4442 26.1666 14.0007 26.1666C7.55715 26.1666 2.33398 20.9434 2.33398 14.4999ZM17.5007 10.9999L13.1922 11.8621C12.7408 11.9525 12.3263 12.1745 12.0007 12.5C11.6752 12.8255 11.4533 13.2401 11.3628 13.6914L10.5007 17.9999L14.8092 17.1378C15.2607 17.0475 15.6755 16.8256 16.0012 16.5001C16.327 16.1746 16.5491 15.7599 16.6397 15.3084L17.5007 10.9999Z" fill="#40048F"/>
</svg>
