<svg width="28" height="29" viewBox="0 0 28 29" fill="none" xmlns="http://www.w3.org/2000/svg">
<g clip-path="url(#clip0_3083_2257)">
<path fill-rule="evenodd" clip-rule="evenodd" d="M11.2 6.1001C11.4434 6.10014 11.6801 6.17946 11.8744 6.32604C12.0687 6.47262 12.2099 6.6785 12.2768 6.9125L13.4909 11.1627C13.7524 12.078 14.2428 12.9116 14.9159 13.5847C15.5891 14.2578 17.338 15.0096 17.338 15.0096L21.5884 16.2238C21.8222 16.2908 22.028 16.4321 22.1744 16.6263C22.3208 16.8206 22.4 17.0572 22.4 17.3005C22.4 17.5438 22.3208 17.7804 22.1744 17.9747C22.028 18.1689 21.8222 18.3102 21.5884 18.3772L17.338 19.5914C16.4227 19.8528 15.5891 20.3432 14.9159 21.0164C14.2428 21.6894 13.7524 22.523 13.4909 23.4384L12.2768 27.6884C12.2098 27.9224 12.0685 28.128 11.8742 28.2744C11.6799 28.4208 11.4433 28.5 11.2 28.5C10.9567 28.5 10.7201 28.4208 10.5258 28.2744C10.3315 28.128 10.1902 27.9224 10.1232 27.6884L8.90906 23.4384C8.64764 22.523 8.1572 21.6894 7.48406 21.0164C6.81092 20.3432 5.97732 19.8528 5.06196 19.5914L0.811624 18.3772C0.577758 18.3102 0.372062 18.1689 0.225632 17.9747C0.0792022 17.7804 0 17.5438 0 17.3005C0 17.0572 0.0792022 16.8206 0.225632 16.6263C0.372062 16.4321 0.577758 16.2908 0.811624 16.2238L5.06196 15.0096C5.97732 14.7482 6.81092 14.2578 7.48406 13.5847C8.1572 12.9116 8.64764 12.078 8.90906 11.1627L10.1232 6.9125C10.1901 6.6785 10.3313 6.47262 10.5256 6.32604C10.7199 6.17946 10.9566 6.10014 11.2 6.1001Z" fill="#40048F"/>
<path fill-rule="evenodd" clip-rule="evenodd" d="M22.4007 0.5C22.5225 0.500025 22.6409 0.539683 22.7379 0.612973C22.8351 0.686264 22.9057 0.789198 22.9391 0.906202L23.5463 3.0313C23.6769 3.48896 23.9221 3.90574 24.2587 4.2423C24.5953 4.57886 25.4699 4.95478 25.4699 4.95478L27.5949 5.56184C27.7119 5.59534 27.8147 5.66598 27.8879 5.76312C27.9611 5.86024 28.0007 5.97856 28.0007 6.1002C28.0007 6.22184 27.9611 6.34016 27.8879 6.43728C27.8147 6.53442 27.7119 6.60508 27.5949 6.63856L25.4699 7.24564C25.0121 7.37634 24.5953 7.62154 24.2587 7.9581C23.9221 8.29466 23.6769 8.71146 23.5463 9.16912L22.9391 11.2942C22.9057 11.4111 22.8351 11.514 22.7379 11.5872C22.6407 11.6604 22.5225 11.7 22.4007 11.7C22.2791 11.7 22.1609 11.6604 22.0637 11.5872C21.9665 11.514 21.8959 11.4111 21.8625 11.2942L21.2553 9.16912C21.1247 8.71146 20.8793 8.29466 20.5429 7.9581C20.2063 7.62154 19.7894 7.37634 19.3318 7.24564L17.2066 6.63856C17.0897 6.60508 16.9868 6.53442 16.9136 6.43728C16.8404 6.34016 16.8008 6.22184 16.8008 6.1002C16.8008 5.97856 16.8404 5.86024 16.9136 5.76312C16.9868 5.66598 17.0897 5.59534 17.2066 5.56184L19.3318 4.95478C19.7894 4.82406 20.2063 4.57886 20.5429 4.2423C20.8793 3.90574 21.1247 3.48896 21.2553 3.0313L21.8625 0.906202C21.8959 0.789198 21.9665 0.686264 22.0635 0.612973C22.1607 0.539683 22.2791 0.500025 22.4007 0.5Z" fill="#40048F"/>
</g>
<defs>
<clipPath id="clip0_3083_2257">
<rect width="28" height="28" fill="white" transform="translate(0 0.5)"/>
</clipPath>
</defs>
</svg>
