<svg width="28" height="28" viewBox="0 0 28 28" fill="none" xmlns="http://www.w3.org/2000/svg">
<path d="M11.6673 18.6665H16.334C16.9757 18.6665 17.5007 18.1415 17.5007 17.4999V11.6665H19.3557C20.394 11.6665 20.919 10.4065 20.184 9.67153L14.829 4.31653C14.7211 4.20837 14.5928 4.12257 14.4517 4.06402C14.3106 4.00548 14.1593 3.97534 14.0065 3.97534C13.8537 3.97534 13.7024 4.00548 13.5613 4.06402C13.4201 4.12257 13.2919 4.20837 13.184 4.31653L7.82898 9.67153C7.09398 10.4065 7.60732 11.6665 8.64565 11.6665H10.5007V17.4999C10.5007 18.1415 11.0257 18.6665 11.6673 18.6665ZM7.00065 20.9999H21.0007C21.6423 20.9999 22.1673 21.5249 22.1673 22.1665C22.1673 22.8082 21.6423 23.3332 21.0007 23.3332H7.00065C6.35898 23.3332 5.83398 22.8082 5.83398 22.1665C5.83398 21.5249 6.35898 20.9999 7.00065 20.9999Z" fill="#40048F"/>
</svg>
